<svg xmlns="http://www.w3.org/2000/svg" xmlns:xlink="http://www.w3.org/1999/xlink" viewBox="0 0 177.88 90.64"><defs><style>.cls-1{fill:none;stroke-linecap:round;stroke-linejoin:round;stroke-width:4px;stroke:url(#Degradado_sin_nombre_395);}</style><linearGradient id="Degradado_sin_nombre_395" x1="44.04" y1="90.22" x2="133.84" y2="0.42" gradientUnits="userSpaceOnUse"><stop offset="0" stop-color="#ffab15"/><stop offset="0.2" stop-color="#ee7f10"/><stop offset="0.47" stop-color="#da4909"/><stop offset="0.7" stop-color="#cb2104"/><stop offset="0.89" stop-color="#c20901"/><stop offset="1" stop-color="#bf0000"/></linearGradient></defs><g id="Capa_2" data-name="Capa 2"><g id="Capa_3" data-name="Capa 3"><path class="cls-1" d="M58.32,11.33H81.45M58.32,24.48H81.45M58.32,17.91H81.45m29.17-9.75H91V30.48h19.65Zm16,32.22V5.51h-6.71m0,0V2h-71V31m71-25.46V40.19m6.71.19a7.16,7.16,0,0,0-1.68-.21l-5,0M48.88,31a7.3,7.3,0,0,0-3.64,6.31V81.35a7.29,7.29,0,0,0,7.29,7.29h72.82a7.29,7.29,0,0,0,7.29-7.29l-.43-33.88a7.28,7.28,0,0,0-5.61-7.09M48.88,31a7.27,7.27,0,0,1,3.65-1H69.44A4,4,0,0,1,73,32.25L75.32,37a5.9,5.9,0,0,0,5.33,3.33l39.24-.09M2,45.35,26.69,31.09m0,28.46L2,45.29m173.88.06L151.19,31.09m0,28.46,24.69-14.26"/></g></g></svg>